<svg aria-roledescription="gitGraph" role="graphics-document document" viewBox="-200.265625 -18.5 608.265625 263.01429748535156" height="100%" xmlns="http://www.w3.org/2000/svg" width="608.265625" id="graph-div" style="max-width: 100%;" xmlns:xlink="http://www.w3.org/1999/xlink"><style>@import url("https://cdnjs.cloudflare.com/ajax/libs/font-awesome/6.5.0/css/all.min.css");'</style><style>#graph-div{font-family:"trebuchet ms",verdana,arial,sans-serif;font-size:16px;fill:#333;}#graph-div .error-icon{fill:#552222;}#graph-div .error-text{fill:#552222;stroke:#552222;}#graph-div .edge-thickness-normal{stroke-width:2px;}#graph-div .edge-thickness-thick{stroke-width:3.5px;}#graph-div .edge-pattern-solid{stroke-dasharray:0;}#graph-div .edge-pattern-dashed{stroke-dasharray:3;}#graph-div .edge-pattern-dotted{stroke-dasharray:2;}#graph-div .marker{fill:#333333;stroke:#333333;}#graph-div .marker.cross{stroke:#333333;}#graph-div svg{font-family:"trebuchet ms",verdana,arial,sans-serif;font-size:16px;}#graph-div .commit-id,#graph-div .commit-msg,#graph-div .branch-label{fill:lightgrey;color:lightgrey;font-family:'trebuchet ms',verdana,arial,sans-serif;font-family:var(--mermaid-font-family);}#graph-div .branch-label0{fill:#ffffff;}#graph-div .commit0{stroke:hsl(240, 100%, 46.2745098039%);fill:hsl(240, 100%, 46.2745098039%);}#graph-div .commit-highlight0{stroke:hsl(60, 100%, 3.7254901961%);fill:hsl(60, 100%, 3.7254901961%);}#graph-div .label0{fill:hsl(240, 100%, 46.2745098039%);}#graph-div .arrow0{stroke:hsl(240, 100%, 46.2745098039%);}#graph-div .branch-label1{fill:black;}#graph-div .commit1{stroke:hsl(60, 100%, 43.5294117647%);fill:hsl(60, 100%, 43.5294117647%);}#graph-div .commit-highlight1{stroke:rgb(0, 0, 160.5);fill:rgb(0, 0, 160.5);}#graph-div .label1{fill:hsl(60, 100%, 43.5294117647%);}#graph-div .arrow1{stroke:hsl(60, 100%, 43.5294117647%);}#graph-div .branch-label2{fill:black;}#graph-div .commit2{stroke:hsl(80, 100%, 46.2745098039%);fill:hsl(80, 100%, 46.2745098039%);}#graph-div .commit-highlight2{stroke:rgb(48.8333333334, 0, 146.5000000001);fill:rgb(48.8333333334, 0, 146.5000000001);}#graph-div .label2{fill:hsl(80, 100%, 46.2745098039%);}#graph-div .arrow2{stroke:hsl(80, 100%, 46.2745098039%);}#graph-div .branch-label3{fill:#ffffff;}#graph-div .commit3{stroke:hsl(210, 100%, 46.2745098039%);fill:hsl(210, 100%, 46.2745098039%);}#graph-div .commit-highlight3{stroke:rgb(146.5000000001, 73.2500000001, 0);fill:rgb(146.5000000001, 73.2500000001, 0);}#graph-div .label3{fill:hsl(210, 100%, 46.2745098039%);}#graph-div .arrow3{stroke:hsl(210, 100%, 46.2745098039%);}#graph-div .branch-label4{fill:black;}#graph-div .commit4{stroke:hsl(180, 100%, 46.2745098039%);fill:hsl(180, 100%, 46.2745098039%);}#graph-div .commit-highlight4{stroke:rgb(146.5000000001, 0, 0);fill:rgb(146.5000000001, 0, 0);}#graph-div .label4{fill:hsl(180, 100%, 46.2745098039%);}#graph-div .arrow4{stroke:hsl(180, 100%, 46.2745098039%);}#graph-div .branch-label5{fill:black;}#graph-div .commit5{stroke:hsl(150, 100%, 46.2745098039%);fill:hsl(150, 100%, 46.2745098039%);}#graph-div .commit-highlight5{stroke:rgb(146.5000000001, 0, 73.2500000001);fill:rgb(146.5000000001, 0, 73.2500000001);}#graph-div .label5{fill:hsl(150, 100%, 46.2745098039%);}#graph-div .arrow5{stroke:hsl(150, 100%, 46.2745098039%);}#graph-div .branch-label6{fill:black;}#graph-div .commit6{stroke:hsl(300, 100%, 46.2745098039%);fill:hsl(300, 100%, 46.2745098039%);}#graph-div .commit-highlight6{stroke:rgb(0, 146.5000000001, 0);fill:rgb(0, 146.5000000001, 0);}#graph-div .label6{fill:hsl(300, 100%, 46.2745098039%);}#graph-div .arrow6{stroke:hsl(300, 100%, 46.2745098039%);}#graph-div .branch-label7{fill:black;}#graph-div .commit7{stroke:hsl(0, 100%, 46.2745098039%);fill:hsl(0, 100%, 46.2745098039%);}#graph-div .commit-highlight7{stroke:rgb(0, 146.5000000001, 146.5000000001);fill:rgb(0, 146.5000000001, 146.5000000001);}#graph-div .label7{fill:hsl(0, 100%, 46.2745098039%);}#graph-div .arrow7{stroke:hsl(0, 100%, 46.2745098039%);}#graph-div .branch{stroke-width:1;stroke:#333333;stroke-dasharray:2;}#graph-div .commit-label{font-size:10px;fill:#000021;}#graph-div .commit-label-bkg{font-size:10px;fill:#ffffde;opacity:0.5;}#graph-div .tag-label{font-size:10px;fill:#131300;}#graph-div .tag-label-bkg{fill:#ECECFF;stroke:hsl(240, 60%, 86.2745098039%);}#graph-div .tag-hole{fill:#333;}#graph-div .commit-merge{stroke:#ECECFF;fill:#ECECFF;}#graph-div .commit-reverse{stroke:#ECECFF;fill:#ECECFF;stroke-width:3;}#graph-div .commit-highlight-inner{stroke:#ECECFF;fill:#ECECFF;}#graph-div .arrow{stroke-width:8;stroke-linecap:round;fill:none;}#graph-div .gitTitleText{text-anchor:middle;font-size:18px;fill:#333;}#graph-div :root{--mermaid-font-family:"trebuchet ms",verdana,arial,sans-serif;}</style><g></g><g class="commit-bullets"></g><g class="commit-labels"></g><g><line class="branch branch0" y2="0" x2="400" y1="0" x1="0"></line><rect transform="translate(-19, -9.25)" height="22.5" width="52.9921875" y="-1.25" x="-68.9921875" ry="4" rx="4" class="branchLabelBkg label0"></rect><g class="branchLabel"><g transform="translate(-78.9921875, -10.25)" class="label branch-label0"><text><tspan class="row" x="0" dy="1em" xml:space="preserve">main</tspan></text></g></g><line class="branch branch1" y2="90" x2="400" y1="90" x1="0"></line><rect transform="translate(-19, 80.75)" height="22.5" width="157.265625" y="-1.25" x="-173.265625" ry="4" rx="4" class="branchLabelBkg label1"></rect><g class="branchLabel"><g transform="translate(-183.265625, 79.75)" class="label branch-label1"><text><tspan class="row" x="0" dy="1em" xml:space="preserve">release/2023-02-07</tspan></text></g></g><line class="branch branch2" y2="180" x2="400" y1="180" x1="0"></line><rect transform="translate(-19, 170.75)" height="22.5" width="157.265625" y="-1.25" x="-173.265625" ry="4" rx="4" class="branchLabelBkg label2"></rect><g class="branchLabel"><g transform="translate(-183.265625, 169.75)" class="label branch-label2"><text><tspan class="row" x="0" dy="1em" xml:space="preserve">release/2023-02-09</tspan></text></g></g></g><g class="commit-arrows"><path class="arrow arrow0" d="M 10 0 L 10 0  10 0 L 60 0"></path><path class="arrow arrow1" d="M 60 0 L 60 70 A 20 20, 0, 0, 0, 80 90 L 110 90"></path><path class="arrow arrow0" d="M 60 0 L 60 0  60 0 L 160 0"></path><path class="arrow arrow0" d="M 160 0 L 160 0  160 0 L 210 0"></path><path class="arrow arrow0" d="M 210 0 L 210 0  210 0 L 260 0"></path><path class="arrow arrow2" d="M 260 0 L 260 160 A 20 20, 0, 0, 0, 280 180 L 310 180"></path><path class="arrow arrow0" d="M 260 0 L 260 0  260 0 L 360 0"></path></g><g class="commit-bullets"><circle class="commit feature 1 commit0" r="10" cy="0" cx="10"></circle><circle class="commit feature 2 commit0" r="10" cy="0" cx="60"></circle><rect class="commit release v1 commit-highlight1 commit-highlight-outer" width="20" height="20" y="80" x="100"></rect><rect class="commit release v1 commit1 commit-highlight-inner" width="12" height="12" y="84" x="104"></rect><circle class="commit feature 3 commit0" r="10" cy="0" cx="160"></circle><circle class="commit fix 1 commit0" r="10" cy="0" cx="210"></circle><circle class="commit fix 2 commit0" r="10" cy="0" cx="260"></circle><rect class="commit release v2 commit-highlight2 commit-highlight-outer" width="20" height="20" y="170" x="300"></rect><rect class="commit release v2 commit2 commit-highlight-inner" width="12" height="12" y="174" x="304"></rect><circle class="commit feature 4 commit0" r="10" cy="0" cx="360"></circle></g><g class="commit-labels"><g transform="translate(-27.04625, 24.088749999999997) rotate(-45, 0, 0)"><rect height="15.5" width="45.4375" y="13.5" x="-12.71875" class="commit-label-bkg"></rect><text class="commit-label" y="25" x="-10.71875">feature 1</text></g><g transform="translate(-27.04625, 24.088749999999997) rotate(-45, 50, 0)"><rect height="15.5" width="45.4375" y="13.5" x="37.28125" class="commit-label-bkg"></rect><text class="commit-label" y="25" x="39.28125">feature 2</text></g><g transform="translate(-28.649375, 25.523125) rotate(-45, 100, 90)"><rect height="15.5" width="49.65625" y="103.5" x="85.171875" class="commit-label-bkg"></rect><text class="commit-label" y="115" x="87.171875">release v1</text></g><polygon points="84.01171875,72.8
          84.01171875,68.8
          92.01171875,63.05
          127.98828125,63.05
          127.98828125,78.55
          92.01171875,78.55" class="tag-label-bkg"></polygon><circle class="tag-hole" r="1.5" cy="70.8" cx="88.01171875"></circle><text x="96.01171875" class="tag-label" y="74">v1.0.0</text><g transform="translate(-27.04625, 24.088749999999997) rotate(-45, 150, 0)"><rect height="15.5" width="45.4375" y="13.5" x="137.28125" class="commit-label-bkg"></rect><text class="commit-label" y="25" x="139.28125">feature 3</text></g><g transform="translate(-18.83171875, 16.73890625) rotate(-45, 200, 0)"><rect height="15.5" width="23.8203125" y="13.5" x="198.08984375" class="commit-label-bkg"></rect><text class="commit-label" y="25" x="200.08984375">fix 1</text></g><g transform="translate(-18.83171875, 16.73890625) rotate(-45, 250, 0)"><rect height="15.5" width="23.8203125" y="13.5" x="248.08984375" class="commit-label-bkg"></rect><text class="commit-label" y="25" x="250.08984375">fix 2</text></g><g transform="translate(-28.649375, 25.523125) rotate(-45, 300, 180)"><rect height="15.5" width="49.65625" y="193.5" x="285.171875" class="commit-label-bkg"></rect><text class="commit-label" y="205" x="287.171875">release v2</text></g><polygon points="284.01171875,162.8
          284.01171875,158.8
          292.01171875,153.05
          327.98828125,153.05
          327.98828125,168.55
          292.01171875,168.55" class="tag-label-bkg"></polygon><circle class="tag-hole" r="1.5" cy="160.8" cx="288.01171875"></circle><text x="296.01171875" class="tag-label" y="164">v2.0.0</text><g transform="translate(-27.04625, 24.088749999999997) rotate(-45, 350, 0)"><rect height="15.5" width="45.4375" y="13.5" x="337.28125" class="commit-label-bkg"></rect><text class="commit-label" y="25" x="339.28125">feature 4</text></g></g></svg>