<?xml version="1.0" standalone="no"?>
<!DOCTYPE svg PUBLIC "-//W3C//DTD SVG 20010904//EN"
 "http://www.w3.org/TR/2001/REC-SVG-20010904/DTD/svg10.dtd">
<svg version="1.0" xmlns="http://www.w3.org/2000/svg"
 width="500.000000pt" height="500.000000pt" viewBox="0 0 500.000000 500.000000"
 preserveAspectRatio="xMidYMid meet">
<metadata>
Created by potrace 1.14, written by Peter Selinger 2001-2017
</metadata>
<g transform="translate(0.000000,500.000000) scale(0.100000,-0.100000)"
fill="#000000" stroke="none">
<path d="M275 3973 c-34 -9 -67 -36 -153 -121 -100 -99 -126 -149 -118 -223 3
-27 12 -62 20 -78 8 -15 233 -245 500 -512 l485 -484 -486 -486 c-267 -267
-493 -499 -501 -515 -24 -45 -24 -131 0 -179 27 -52 188 -210 236 -231 50 -21
112 -20 164 4 32 15 206 183 674 653 348 349 639 649 648 666 24 48 26 101 5
156 -15 41 -102 133 -646 678 -345 347 -643 639 -661 651 -33 20 -127 32 -167
21z"/>
<path d="M2076 1685 c-51 -18 -92 -59 -112 -112 -21 -53 -24 -258 -5 -314 15
-46 73 -105 120 -121 28 -9 328 -12 1336 -12 l1300 0 40 21 c47 25 76 54 100
102 24 48 24 268 0 329 -21 51 -72 97 -122 111 -26 7 -457 11 -1328 11 -1069
-1 -1297 -3 -1329 -15z"/>
</g>
</svg>
